<svg width="40" height="40" viewBox="0 0 40 40"
    xmlns="http://www.w3.org/2000/svg">
    <g fill="none" fillRule="evenodd">
        <circle fill="#FFF" cx="20" cy="18.313" r="16"/>
        <g transform="translate(6.984 6.916)">
            <path d="M5.497.622A46.007 46.007 0 0 1 13.017 0c2.506 0 5.012.207 7.519.622a2 2 0 0 1 1.674 1.971v20.506a2 2 0 0 1-2 2H5.823a2 2 0 0 1-2-2V2.592A2 2 0 0 1 5.497.622z" fill="#000"/>
            <rect fill="#000" x=".984" y="4.227" width="1.839" height="4.597" rx=".919"/>
            <path d="M4.59 22.975h3.687v3.272a1 1 0 0 1-1 1H5.59a1 1 0 0 1-1-1v-3.272zM17.496 20.33h3.675v5.917a1 1 0 0 1-1 1h-1.675a1 1 0 0 1-1-1V20.33z" fill="#000"/>
            <path fill="#FFF" d="M4.742 4.005h16.549v12.402l-.92.504-.954-.502H6.616l-.954.502-.92-.504zM5.84 21.567l1.759.293a.5.5 0 0 1 .417.493v.455a.5.5 0 0 1-.5.5H5.758a.5.5 0 0 1-.5-.5v-.748a.5.5 0 0 1 .583-.493zM20.192 21.567l-1.758.293a.5.5 0 0 0-.418.493v.455a.5.5 0 0 0 .5.5h1.759a.5.5 0 0 0 .5-.5v-.748a.5.5 0 0 0-.583-.493z"/>
            <path stroke="#FFF" d="M10.016 22.584h6"/>
            <rect fill="#000" x="23.21" y="4.227" width="1.839" height="4.597" rx=".919"/>
            <path stroke="#000" stroke-width="2" stroke-linecap="round" stroke-linejoin="round" d="M2.016 27.084h22"/>
        </g>
    </g>
</svg>
