<svg width="40" height="40" viewBox="0 0 40 40" xmlns="http://www.w3.org/2000/svg">
    <g fill="none" fill-rule="evenodd">
        <circle fill="#E6E6E6" cx="20" cy="18.313" r="16"/>
        <path stroke="#000" stroke-width="2" stroke-linecap="round" stroke-linejoin="round" d="M6 34h28"/>
        <path d="M8.74 21.188h22.615l.132.2c.466.725.791 1.513.944 2.359.083.457.104.93.108 1.396.013 1.432.01 2.864.002 4.296-.002.325-.062.65-.081.975-.008.13-.082.172-.165.194l-.1.02c-.385.074-.772.15-1.161.188-4.09.406-8.193.469-12.297.39-2.106-.041-4.211-.158-6.313-.296a62.89 62.89 0 0 1-2.326-.204l-2.323-.244c-.236-.023-.294-.225-.336-.41-.21-.942-.217-1.9-.213-2.857.004-.994.051-1.987.087-2.98.015-.407.128-.788.335-1.141l.51-.874.583-1.012z" fill="#000"/>
        <path d="M7.231 26.868v7.4c0 .331.275.6.613.6h2.03a.606.606 0 0 0 .614-.6v-7.4H7.231zM32.564 26.868v7.4c0 .331-.275.6-.614.6h-2.03a.606.606 0 0 1-.613-.6v-7.4h3.257z" fill="#000"/>
        <path d="M20.38 15.355c1.842 0 4.574.355 8.196 1.06l2.025 4.273H9.491l1.655-3.964c4.43-1.01 7.383-1.37 9.234-1.37z" stroke="#000" fill="#FFF"/>
        <path fill="#FFF" d="M14.405 26.212h10.982v2.03H14.405zM26.962 26.212h4a.5.5 0 0 1 .5.5v.417a.5.5 0 0 1-.433.496l-4 .541a.5.5 0 0 1-.567-.495v-.96a.5.5 0 0 1 .5-.5zM12.932 26.212h-4a.5.5 0 0 0-.5.5v.417a.5.5 0 0 0 .433.496l4 .541a.5.5 0 0 0 .567-.495v-.96a.5.5 0 0 0-.5-.5z"/>
        <path d="m7.84 20.414-.646-.646H5.003a.5.5 0 0 0-.448.724l.5 1a.5.5 0 0 0 .448.276h1.69l.647-.647a.5.5 0 0 0 0-.707zM32.129 20.557l.646-.647h2.191a.5.5 0 0 1 .448.724l-.5 1a.5.5 0 0 1-.448.276h-1.69l-.647-.646a.5.5 0 0 1 0-.707z" fill="#000"/>
    </g>
</svg>
