<svg xmlns="http://www.w3.org/2000/svg" width="34" height="34" display="block" preserveAspectRatio="xMidYMid" style="margin:auto;background:#fff" viewBox="0 0 100 100">
  <rect width="4" height="13" x="48" y="19.5" fill="#837d7e" rx="0" ry="0">
    <animate attributeName="opacity" begin="-0.7936507936507935s" dur="0.8928571428571428s" keyTimes="0;1" repeatCount="indefinite" values="1;0"/>
  </rect>
  <rect width="4" height="13" x="48" y="19.5" fill="#837d7e" rx="0" ry="0" transform="rotate(40 50 50)">
    <animate attributeName="opacity" begin="-0.6944444444444443s" dur="0.8928571428571428s" keyTimes="0;1" repeatCount="indefinite" values="1;0"/>
  </rect>
  <rect width="4" height="13" x="48" y="19.5" fill="#837d7e" rx="0" ry="0" transform="rotate(80 50 50)">
    <animate attributeName="opacity" begin="-0.5952380952380951s" dur="0.8928571428571428s" keyTimes="0;1" repeatCount="indefinite" values="1;0"/>
  </rect>
  <rect width="4" height="13" x="48" y="19.5" fill="#837d7e" rx="0" ry="0" transform="rotate(120 50 50)">
    <animate attributeName="opacity" begin="-0.49603174603174593s" dur="0.8928571428571428s" keyTimes="0;1" repeatCount="indefinite" values="1;0"/>
  </rect>
  <rect width="4" height="13" x="48" y="19.5" fill="#837d7e" rx="0" ry="0" transform="rotate(160 50 50)">
    <animate attributeName="opacity" begin="-0.39682539682539675s" dur="0.8928571428571428s" keyTimes="0;1" repeatCount="indefinite" values="1;0"/>
  </rect>
  <rect width="4" height="13" x="48" y="19.5" fill="#837d7e" rx="0" ry="0" transform="rotate(200 50 50)">
    <animate attributeName="opacity" begin="-0.29761904761904756s" dur="0.8928571428571428s" keyTimes="0;1" repeatCount="indefinite" values="1;0"/>
  </rect>
  <rect width="4" height="13" x="48" y="19.5" fill="#837d7e" rx="0" ry="0" transform="rotate(240 50 50)">
    <animate attributeName="opacity" begin="-0.19841269841269837s" dur="0.8928571428571428s" keyTimes="0;1" repeatCount="indefinite" values="1;0"/>
  </rect>
  <rect width="4" height="13" x="48" y="19.5" fill="#837d7e" rx="0" ry="0" transform="rotate(280 50 50)">
    <animate attributeName="opacity" begin="-0.09920634920634919s" dur="0.8928571428571428s" keyTimes="0;1" repeatCount="indefinite" values="1;0"/>
  </rect>
  <rect width="4" height="13" x="48" y="19.5" fill="#837d7e" rx="0" ry="0" transform="rotate(320 50 50)">
    <animate attributeName="opacity" begin="0s" dur="0.8928571428571428s" keyTimes="0;1" repeatCount="indefinite" values="1;0"/>
  </rect>
</svg>