<svg width="24" height="24" viewBox="0 0 24 24"
    xmlns="http://www.w3.org/2000/svg">
    <g fill="none" fillRule="evenodd">
        <path d="M4.14.658H19.2c1.07 0 1.458.111 1.85.32.39.21.697.516.906.908.21.39.32.779.32 1.848v14.967c0 1.07-.11 1.458-.32 1.849a2.18 2.18 0 0 1-.907.907c-.391.21-.779.32-1.849.32H4.14c-1.07 0-1.458-.11-1.85-.32a2.18 2.18 0 0 1-.907-.907c-.209-.391-.32-.78-.32-1.849V3.734c0-1.07.111-1.457.32-1.848a2.18 2.18 0 0 1 .908-.908C2.68.77 3.07.658 4.14.658z" fill="#FFF"/>
        <path fill="#000" fillRule="nonzero" d="M8.572 12.019h1.23l.596 2.077.633-2.077h1.043l-1.117 3.004h-1.23zM12.484 12.019h1.192l.633 2.077.634-2.077h1.043l-1.118 3.004h-1.23zM17.253 14.022c0 .074 0 .185.074.296a.308.308 0 0 0 .298.186c.26 0 .373-.186.373-.334 0-.185-.187-.26-.447-.334l-.597-.148c-.186-.074-.745-.223-.745-.816 0-.297.15-.556.373-.705.26-.185.633-.26 1.043-.26.67 0 1.341.186 1.378 1.04H17.96c0-.112 0-.223-.037-.298-.074-.11-.149-.185-.335-.185-.186 0-.335.074-.335.26 0 .185.149.26.298.296l.82.223c.297.074.707.26.707.816 0 1.038-1.192 1.038-1.453 1.038-.596 0-1.49-.111-1.49-1.075h1.118z"/>
        <path d="M3.73 10.98c0 4.006 3.278 7.233 7.301 7.233.932 0 1.826-.186 2.72-.52l-.56-1.298c-.67.26-1.415.408-2.16.408-3.24 0-5.886-2.596-5.886-5.823 0-3.19 2.645-5.823 5.886-5.823 3.204 0 5.849 2.634 5.849 5.823v.075h1.416v-.075c0-4.005-3.279-7.232-7.265-7.232-4.023 0-7.302 3.227-7.302 7.232z" fill="#F60" fillRule="nonzero"/>
    </g>
</svg>
